<svg width="23" height="23" viewBox="0 0 23 23" fill="none" xmlns="http://www.w3.org/2000/svg">
<path d="M7.0028 11.5723C7.94406 13.5161 9.51583 15.0838 11.462 16.0201C11.6056 16.088 11.7644 16.1175 11.9227 16.1054C12.0811 16.0934 12.2336 16.0403 12.3653 15.9515L15.2238 14.042C15.3501 13.9563 15.496 13.9041 15.648 13.8901C15.7999 13.8761 15.9529 13.9008 16.0927 13.962L21.4438 16.2602C21.6267 16.3363 21.7795 16.4704 21.8787 16.6419C21.9778 16.8134 22.0179 17.0127 21.9926 17.2092C21.823 18.5329 21.1769 19.7495 20.1752 20.6313C19.1734 21.5131 17.8847 21.9997 16.5501 22C12.426 22 8.47073 20.3617 5.55452 17.4455C2.63831 14.5293 1 10.574 1 6.4499C1.0003 5.11533 1.48687 3.8266 2.36867 2.82484C3.25046 1.82309 4.46706 1.17696 5.7908 1.00736C5.98728 0.982124 6.18661 1.02217 6.35809 1.12134C6.52957 1.22051 6.6637 1.37331 6.73982 1.55619L9.03803 6.91869C9.0978 7.05629 9.1228 7.20648 9.11083 7.35603C9.09887 7.50557 9.05031 7.64988 8.96943 7.77623L7.05997 10.6804C6.97496 10.8118 6.92506 10.9628 6.91505 11.1189C6.90504 11.275 6.93525 11.4312 7.0028 11.5723V11.5723Z" stroke="white" stroke-width="2" stroke-linecap="round" stroke-linejoin="round"/>
</svg>
