<svg width="20" height="20" viewBox="0 0 20 20" fill="none" xmlns="http://www.w3.org/2000/svg">
<path d="M5.48837 17.7324L5.676 17.8352C7.01182 18.5669 8.54619 18.9848 10.181 18.9848C15.332 18.9848 19.5 14.8433 19.5 9.74272C19.5 4.64221 15.3326 0.501303 10.1823 0.5L5.48837 17.7324ZM5.48837 17.7324L5.28447 17.7972M5.48837 17.7324L5.28447 17.7972M5.28447 17.7972L0.790843 19.2242M5.28447 17.7972L0.790843 19.2242M0.790843 19.2242L2.24548 14.9321L2.32042 14.711L2.199 14.5115C1.35182 13.1202 0.863909 11.4868 0.863909 9.74207M0.790843 19.2242L10.1822 0.5C5.03134 0.500062 0.864527 4.64141 0.863909 9.74207M0.863909 9.74207H0.363909H0.863909ZM5.568 17.1267C6.90898 17.9548 8.48984 18.4333 10.1803 18.4333C15.0041 18.4333 18.9354 14.5396 18.9355 9.74286L5.568 17.1267ZM5.568 17.1267L2.61988 18.0635L1.67761 18.3629L1.9949 17.4265L2.94348 14.627C1.98757 13.2351 1.4265 11.5536 1.4265 9.74468C1.4265 4.94805 5.3563 1.05346 10.1803 1.05346C15.0047 1.05346 18.9368 4.94771 18.9355 9.74272L5.568 17.1267ZM14.4536 12.1553L14.4541 12.1556C14.5058 12.1815 14.5549 12.2051 14.5967 12.2252C14.6065 12.23 14.6159 12.2345 14.6249 12.2388C14.6432 12.2477 14.6595 12.2556 14.6741 12.2628C14.6733 12.2858 14.6717 12.3118 14.6692 12.3406C14.6554 12.5005 14.6143 12.7179 14.5286 12.9566L14.5285 12.9569C14.4869 13.0729 14.3124 13.2704 14.0083 13.4653C13.7116 13.6556 13.4353 13.7521 13.3298 13.7617L13.3296 13.7617C13.2125 13.7725 13.0785 13.8049 13.0141 13.8205C12.9989 13.8242 12.9876 13.8269 12.9813 13.8282C12.9258 13.8396 12.8582 13.8495 12.7313 13.8373C12.4452 13.8099 11.8895 13.6744 10.6687 13.1978C8.58942 12.3851 7.2017 10.3749 6.84644 9.86025C6.81263 9.81128 6.78817 9.77585 6.77336 9.75628L6.77268 9.75539C6.71702 9.68199 6.49329 9.38691 6.28374 8.97729C6.06972 8.55895 5.89277 8.06362 5.89277 7.58861C5.89277 6.69113 6.31745 6.23928 6.55317 5.98848C6.57094 5.96957 6.58764 5.9518 6.603 5.93508C6.70991 5.81865 6.82602 5.79951 6.8758 5.79951C6.93805 5.79951 7.00327 5.80331 7.0825 5.8083C7.08664 5.80856 7.09084 5.80883 7.09509 5.8091C7.16596 5.81358 7.25284 5.81907 7.33688 5.81907C7.34927 5.81907 7.36158 5.81878 7.373 5.81836C7.3851 5.84019 7.40004 5.8703 7.41708 5.91093L7.41744 5.91177C7.49034 6.0847 7.60007 6.34945 7.71369 6.62357C7.756 6.72566 7.79885 6.82904 7.84053 6.92947C7.98538 7.27843 8.12941 7.62429 8.17168 7.71018C8.17336 7.71358 8.17485 7.7167 8.17617 7.71955C8.16915 7.73365 8.16266 7.74672 8.15662 7.75889C8.09809 7.87678 8.08162 7.90996 8.02241 7.97812L8.0209 7.97988C7.96374 8.04631 7.91463 8.10576 7.87069 8.15895C7.79926 8.24542 7.7415 8.31534 7.68506 8.37179L8.03852 8.72525L7.68603 8.37082C7.68321 8.37362 7.67998 8.37679 7.67639 8.38032C7.62323 8.43251 7.48965 8.56366 7.42045 8.74717C7.32793 8.99249 7.37107 9.2425 7.50245 9.46505C7.65254 9.72226 8.16709 10.5549 8.94027 11.24L8.94061 11.2403C9.77537 11.9785 10.5304 12.3015 10.8535 12.4397C10.9111 12.4643 10.9549 12.483 10.9831 12.4972L10.9831 12.4973L10.9879 12.4996C11.1413 12.5749 11.3425 12.6482 11.568 12.6201C11.8132 12.5897 11.986 12.4539 12.1042 12.3195C12.2279 12.1793 12.6485 11.6919 12.8572 11.4008C12.8592 11.4016 12.8613 11.4023 12.8635 11.4031L12.8658 11.404C12.9445 11.4319 13.2646 11.5801 13.6326 11.7561C13.9847 11.9244 14.3377 12.0972 14.4536 12.1553Z" fill="black" stroke="#207FF1"/>
</svg>
